<?xml version="1.0" encoding="iso-8859-1"?>
<!-- Generator: Adobe Illustrator 19.0.0, SVG Export Plug-In . SVG Version: 6.00 Build 0)  -->
<svg version="1.1" id="Capa_1" xmlns="http://www.w3.org/2000/svg" xmlns:xlink="http://www.w3.org/1999/xlink" x="0px" y="0px"
	 viewBox="0 0 512 512" style="enable-background:new 0 0 512 512;" xml:space="preserve">
<g>
	<g>
		<g>
			<path d="M378.711,394.061c-9.87-4.963-21.892-0.983-26.853,8.884c-21.417,42.596-64.312,69.056-111.949,69.056
				c-69.043,0-125.214-56.171-125.214-125.214c0-36.985,16.232-71.888,44.534-95.76c8.444-7.122,9.515-19.74,2.394-28.183
				c-7.122-8.447-19.743-9.515-28.183-2.394c-37.333,31.489-58.745,77.537-58.745,126.336c0,91.1,74.114,165.214,165.214,165.214
				c63.296,0,119.937-35.897,147.686-91.087C392.557,411.044,388.579,399.021,378.711,394.061z"/>
			<path d="M430.654,359.107l-109.698-98.334c-3.669-3.289-8.423-5.107-13.35-5.107h-81.271v-22.575h65.818c11.046,0,20-8.954,20-20
				s-8.954-20-20-20h-65.818v-12.268c40.874-9.148,71.515-45.714,71.515-89.307C297.85,41.054,256.796,0,206.335,0
				c-50.462,0-91.516,41.054-91.516,91.516c0,43.593,30.641,80.159,71.516,89.307v94.843c0,11.046,8.954,20,20,20h93.619
				l104.001,93.227c8.216,7.365,20.861,6.69,28.242-1.543C439.57,379.125,438.879,366.48,430.654,359.107z M154.819,91.516
				c0-28.407,23.11-51.516,51.516-51.516c28.405,0,51.515,23.109,51.515,51.515s-23.11,51.515-51.515,51.515
				C177.929,143.03,154.819,119.921,154.819,91.516z"/>
		</g>
	</g>
</g>
<g>
</g>
<g>
</g>
<g>
</g>
<g>
</g>
<g>
</g>
<g>
</g>
<g>
</g>
<g>
</g>
<g>
</g>
<g>
</g>
<g>
</g>
<g>
</g>
<g>
</g>
<g>
</g>
<g>
</g>
</svg>
