<?xml version="1.0" encoding="iso-8859-1"?>
<!-- Generator: Adobe Illustrator 19.0.0, SVG Export Plug-In . SVG Version: 6.00 Build 0)  -->
<svg version="1.1" id="Capa_1" xmlns="http://www.w3.org/2000/svg" xmlns:xlink="http://www.w3.org/1999/xlink" x="0px" y="0px"
	 viewBox="0 0 480 480" style="enable-background:new 0 0 480 480;" xml:space="preserve">
<g>
	<g>
		<path d="M376,4c-57.438,0-104,46.562-104,104v6.56l-31.52,86.72c-0.878,2.439-0.521,5.152,0.96,7.28
			c1.492,2.151,3.942,3.436,6.56,3.44h40v48c0,4.418,3.582,8,8,8h80v32c0,4.418,3.582,8,8,8h88c4.418,0,8-3.582,8-8V108
			C480,50.562,433.438,4,376,4z M464,292h-72v-32c0-4.418-3.582-8-8-8h-80v-48c0-4.418-3.582-8-8-8h-36.56l28.08-77.28
			c0.316-0.872,0.479-1.792,0.48-2.72v-8c0-48.601,39.399-88,88-88c48.601,0,88,39.399,88,88V292z"/>
	</g>
</g>
<g>
	<g>
		<path d="M360.4,107.12c-11.804,11.779-30.916,11.779-42.72,0l-11.36,11.36c18.081,18.045,47.359,18.045,65.44,0L360.4,107.12z"/>
	</g>
</g>
<g>
	<g>
		<path d="M239.52,369.28L208,282.56V276c0-57.438-46.562-104-104-104S0,218.562,0,276v192c0,4.418,3.582,8,8,8h88
			c4.418,0,8-3.582,8-8v-32h80c4.418,0,8-3.582,8-8v-48h40c2.618-0.004,5.068-1.289,6.56-3.44
			C240.041,374.432,240.398,371.719,239.52,369.28z M184,364c-4.418,0-8,3.582-8,8v48H96c-4.418,0-8,3.582-8,8v32H16V276
			c0-48.601,39.399-88,88-88s88,39.399,88,88v8c0.001,0.928,0.164,1.848,0.48,2.72L220.56,364H184z"/>
	</g>
</g>
<g>
	<g>
		<path d="M162.32,275.12c-11.804,11.779-30.916,11.779-42.72,0l-11.36,11.36c18.081,18.045,47.359,18.045,65.44,0L162.32,275.12z"
			/>
	</g>
</g>
<g>
	<g>
		<path d="M128,68c-22.091,0-40,17.909-40,40v20.72l-10.32-10.4l-11.36,11.36l24,24c3.111,3.137,8.177,3.158,11.314,0.046
			c0.016-0.015,0.031-0.031,0.046-0.046l24-24l-11.36-11.36L104,128.72V108c0-13.255,10.745-24,24-24h96V68H128z"/>
	</g>
</g>
<g>
	<g>
		<rect x="240" y="68" width="16" height="16"/>
	</g>
</g>
<g>
	<g>
		<path d="M437.68,326.32c-3.111-3.137-8.177-3.158-11.314-0.046c-0.016,0.015-0.031,0.031-0.046,0.046l-24,24l11.36,11.36
			l10.32-10.4V388c0,13.255-10.745,24-24,24H240v16h160c22.091,0,40-17.909,40-40v-36.72l10.32,10.4l11.36-11.36L437.68,326.32z"/>
	</g>
</g>
<g>
	<g>
		<rect x="208" y="412" width="16" height="16"/>
	</g>
</g>
<g>
</g>
<g>
</g>
<g>
</g>
<g>
</g>
<g>
</g>
<g>
</g>
<g>
</g>
<g>
</g>
<g>
</g>
<g>
</g>
<g>
</g>
<g>
</g>
<g>
</g>
<g>
</g>
<g>
</g>
</svg>
