<svg id="Layer_5" enable-background="new 0 0 64 64" height="512" viewBox="0 0 64 64" width="512" xmlns="http://www.w3.org/2000/svg"><path d="m14 45c-6.065 0-11 4.935-11 11v5h7.5c.827 0 1.5-.673 1.5-1.5s-.673-1.5-1.5-1.5h-5.5v-2h2v-6h10v11h2v-9h2v9h4v-5c0-6.065-4.935-11-11-11z"/><path d="m9 56h1.5c1.93 0 3.5 1.57 3.5 3.5 0 .536-.122 1.045-.338 1.5h1.338v-9h-6z"/><circle cx="14" cy="38" r="5"/><path d="m45 56h1.5c1.93 0 3.5 1.57 3.5 3.5 0 .536-.122 1.045-.338 1.5h1.338v-9h-6z"/><circle cx="50" cy="38" r="5"/><path d="m50 45c-6.065 0-11 4.935-11 11v5h7.5c.827 0 1.5-.673 1.5-1.5s-.673-1.5-1.5-1.5h-5.5v-2h2v-6h10v11h2v-9h2v9h4v-5c0-6.065-4.935-11-11-11z"/><path d="m27.171 17.368c.566.428 1.018.991 1.332 1.632h2.497v-4.142c-1.72-.447-3-1.999-3-3.858 0-2.206 1.794-4 4-4s4 1.794 4 4c0 1.859-1.28 3.411-3 3.858v4.142h2.532c.331-.657.807-1.246 1.412-1.722 1.942-1.527 3.056-3.815 3.056-6.278 0-2.183-.863-4.222-2.43-5.742-1.506-1.462-3.475-2.258-5.569-2.258-.083 0-.166.001-.249.004-4.29.129-7.768 3.729-7.752 8.024.009 2.508 1.165 4.819 3.171 6.34z"/><circle cx="32" cy="11" r="2"/><path d="m32 25c1.654 0 3-1.346 3-3v-.772c0-.077.01-.151.013-.228h-6.022c.002.051.009.102.009.153v.847c0 1.654 1.346 3 3 3z"/><path d="m52.272 22.556c-.767.544-1.272 1.434-1.272 2.444 0 1.654 1.346 3 3 3s3-1.346 3-3c0-1.587-1.242-2.876-2.803-2.98-1.153-4.303-3.498-8.146-6.852-11.153l-1.335 1.49c3.068 2.75 5.211 6.264 6.262 10.199z"/><path d="m46.113 9.838c-.516-.401-1.057-.786-1.61-1.146l-1.089 1.678c.505.328 1 .68 1.47 1.046z"/><path d="m10 28c1.654 0 3-1.346 3-3 0-1.01-.505-1.9-1.272-2.444 1.051-3.935 3.193-7.449 6.261-10.199l-1.335-1.49c-3.354 3.007-5.698 6.85-6.852 11.153-1.56.104-2.802 1.393-2.802 2.98 0 1.654 1.346 3 3 3z"/><path d="m20.585 10.37-1.089-1.678c-.553.359-1.094.744-1.61 1.146l1.229 1.578c.471-.366.966-.718 1.47-1.046z"/><path d="m42 34c0-1.654-1.346-3-3-3-1.302 0-2.402.839-2.816 2h-8.369c-.414-1.161-1.514-2-2.816-2-1.654 0-3 1.346-3 3s1.346 3 3 3c1.302 0 2.402-.839 2.816-2h8.369c.414 1.161 1.514 2 2.816 2 1.654 0 3-1.346 3-3z"/></svg>