<?xml version="1.0" encoding="iso-8859-1"?>
<!-- Generator: Adobe Illustrator 19.0.0, SVG Export Plug-In . SVG Version: 6.00 Build 0)  -->
<svg version="1.1" id="Capa_1" xmlns="http://www.w3.org/2000/svg" xmlns:xlink="http://www.w3.org/1999/xlink" x="0px" y="0px"
	 viewBox="0 0 512 512" style="enable-background:new 0 0 512 512;" xml:space="preserve">
<g>
	<g>
		<path d="M467,61h-30c-8.284,0-15,6.716-15,15v45H301V45c0-24.813-20.187-45-45-45s-45,20.187-45,45v76H90V76
			c0-8.284-6.716-15-15-15H45C20.187,61,0,81.187,0,106v361c0,24.813,20.187,45,45,45h422c24.813,0,45-20.187,45-45V106
			C512,81.187,491.813,61,467,61z M452,91h15c8.271,0,15,6.729,15,15v318.57c-4.693-1.664-9.743-2.57-15-2.57h-15V91z M241,45
			c0-8.271,6.729-15,15-15s15,6.729,15,15v15h-30V45z M256,328.972L193.042,287L256,245.028L318.958,287L256,328.972z M331,315.028
			v53.944l-60,40v-53.944L331,315.028z M241,355.028v53.944l-60-40v-53.944L241,355.028z M241,90h30v74.877l-15,29.25l-15-29.25V90z
			 M30,106c0-8.271,6.729-15,15-15h15v331H45c-5.257,0-10.307,0.906-15,2.57V106z M467,482H45c-8.271,0-15-6.729-15-15
			s6.729-15,15-15h30c8.284,0,15-6.716,15-15V151h121v17.5c0,2.38,0.566,4.727,1.653,6.845l23.895,46.596L157.68,274.52
			c-0.092,0.061-0.178,0.128-0.269,0.191c-4.09,2.867-6.411,7.513-6.411,12.29v90c0,5.015,2.506,9.699,6.68,12.481l90,60
			c0.053,0.035,0.108,0.065,0.162,0.099c4.921,3.197,11.309,3.242,16.318,0c0.053-0.035,0.108-0.064,0.161-0.099l90-60
			c4.173-2.782,6.68-7.466,6.68-12.481v-90c0-5.147-2.676-9.819-6.68-12.481l-78.868-52.579l23.895-46.596
			c1.086-2.118,1.653-4.464,1.653-6.845V151h121v286c0,8.284,6.716,15,15,15h30c8.271,0,15,6.729,15,15S475.271,482,467,482z"/>
	</g>
</g>
<g>
</g>
<g>
</g>
<g>
</g>
<g>
</g>
<g>
</g>
<g>
</g>
<g>
</g>
<g>
</g>
<g>
</g>
<g>
</g>
<g>
</g>
<g>
</g>
<g>
</g>
<g>
</g>
<g>
</g>
</svg>
